<svg xmlns="http://www.w3.org/2000/svg" xmlns:xlink="http://www.w3.org/1999/xlink" width="500" zoomAndPan="magnify" viewBox="0 0 375 374.999991" height="500" preserveAspectRatio="xMidYMid meet" version="1.2"><g id="fc5584bef6"><path style=" stroke:none;fill-rule:nonzero;fill:#ff3131;fill-opacity:1;" d="M 231.105469 143.757812 L 192.90625 169.230469 L 192.90625 116.453125 C 162.734375 116.453125 138.296875 140.890625 138.296875 171.0625 C 138.296875 176.765625 139.167969 182.28125 140.808594 187.445312 L 121.914062 187.445312 C 121.914062 223.621094 151.265625 252.976562 187.445312 252.976562 C 223.621094 252.976562 252.976562 223.621094 252.976562 187.445312 C 252.976562 169.558594 244.375 153.722656 231.105469 143.757812 Z M 187.445312 236.59375 C 175.375 236.59375 165.601562 226.816406 165.601562 214.75 C 165.601562 202.679688 175.375 192.90625 187.445312 192.90625 L 187.445312 214.75 L 205.628906 202.625 C 207.949219 206.09375 209.289062 210.269531 209.289062 214.75 C 209.289062 226.816406 199.511719 236.59375 187.445312 236.59375 Z M 187.445312 236.59375 "/></g></svg>